<?xml version="1.0" encoding="UTF-8" standalone="no"?>
<svg
   xmlns:dc="http://purl.org/dc/elements/1.1/"
   xmlns:cc="http://creativecommons.org/ns#"
   xmlns:rdf="http://www.w3.org/1999/02/22-rdf-syntax-ns#"
   xmlns:svg="http://www.w3.org/2000/svg"
   xmlns="http://www.w3.org/2000/svg"
   xmlns:xlink="http://www.w3.org/1999/xlink"
   xmlns:sodipodi="http://sodipodi.sourceforge.net/DTD/sodipodi-0.dtd"
   xmlns:inkscape="http://www.inkscape.org/namespaces/inkscape"
   width="626px"
   height="672px"
   viewBox="0 0 626 672"
   version="1.1"
   id="svg81732"
   sodipodi:docname="ngx-plus.svg"
   inkscape:version="0.92.1 r15371">
  <metadata
     id="metadata81736">
    <rdf:RDF>
      <cc:Work
         rdf:about="">
        <dc:format>image/svg+xml</dc:format>
        <dc:type
           rdf:resource="http://purl.org/dc/dcmitype/StillImage" />
      </cc:Work>
    </rdf:RDF>
  </metadata>
  <sodipodi:namedview
     pagecolor="#ffffff"
     bordercolor="#666666"
     borderopacity="1"
     objecttolerance="10"
     gridtolerance="10"
     guidetolerance="10"
     inkscape:pageopacity="0"
     inkscape:pageshadow="2"
     inkscape:window-width="1920"
     inkscape:window-height="1017"
     id="namedview81734"
     showgrid="false"
     inkscape:zoom="1.0076756"
     inkscape:cx="111.54628"
     inkscape:cy="336"
     inkscape:window-x="1535"
     inkscape:window-y="1064"
     inkscape:window-maximized="1"
     inkscape:current-layer="angular" />
  <defs
     id="defs81719">
    <symbol
       id="icon-plus"
       viewBox="0 0 22 28">
      <title
         id="title147484">plus</title>
      <path
         d="M22 11.5v3c0 0.828-0.672 1.5-1.5 1.5h-6.5v6.5c0 0.828-0.672 1.5-1.5 1.5h-3c-0.828 0-1.5-0.672-1.5-1.5v-6.5h-6.5c-0.828 0-1.5-0.672-1.5-1.5v-3c0-0.828 0.672-1.5 1.5-1.5h6.5v-6.5c0-0.828 0.672-1.5 1.5-1.5h3c0.828 0 1.5 0.672 1.5 1.5v6.5h6.5c0.828 0 1.5 0.672 1.5 1.5z"
         id="path147486" />
    </symbol>
  </defs>
  <g
     id="Symbols"
     style="fill:none;fill-rule:evenodd;stroke:none;stroke-width:1">
    <g
       id="ngx-plus">
      <g
         id="Group-2">
        <g
           id="Group"
           style="fill-rule:nonzero">
          <g
             id="angular">
            <polygon
               id="Shape"
               points="313,0 0.025531915,111.552 47.761702,525.168 313,672 578.2383,525.168 625.97447,111.552 "
               style="fill:#011f4b;fill-opacity:0.68627453" />
            <polygon
               id="polygon81722"
               points="313,74.256 313,414.624 313,672 578.2383,525.168 625.97447,111.552 313,0 313,74.592 "
               style="fill:#011533;fill-opacity:0.78431374"
               inkscape:label="polygon81722" />
          </g>
        </g>
        <text
           id="f067"
           font-size="300"
           font-weight="normal"
           style="font-weight:normal;font-size:300px;font-family:FontAwesome;opacity:0.91711958;fill:#ffffff">
          <tspan
             x="195"
             y="442"
             id="tspan81726">
            <i
               class="fa fa-plus"
               aria-hidden="true" />
          </tspan>
        </text>
      </g>
    </g>
  </g>
  <use
     id="use160534"
     style="fill:#e6e6e6;stroke:none"
     xlink:href="#icon-plus"
     x="0"
     y="0"
     width="100%"
     height="100%"
     transform="matrix(0.56818182,0,0,0.56818182,135.84562,143.28449)" />
</svg>
